<svg xmlns="http://www.w3.org/2000/svg" viewBox="0 0 480 480"><g transform="translate(0.000000,480.000000) scale(1.000000,-1.000000)" fill="#C9A84C"><path d="M241 457 c-35 -12 -43 -56 -14 -78 26 -21 67 -4 72 30 5 31 -28 59 -58 48z M313 409 c40 -46 56 -130 34 -182 -2 -8 -1 -6 6 3 42 63 29 128 -35 179 -11 9 -12 9 -5 0z M174 375 c-37 -5 -74 -34 -100 -78 -2 -4 0 -3 8 6 41 40 104 63 151 56 7 -2 13 -3 27 -8 4 -2 -4 3 -14 8 -25 13 -50 19 -72 16z M228 323 c-66 -12 -92 -92 -46 -140 51 -54 142 -17 142 58 0 52 -46 91 -96 82z M55 286 c-26 -7 -43 -34 -35 -59 12 -39 66 -43 85 -5 18 35 -12 73 -50 64z M404 281 c-46 -16 -40 -80 8 -85 40 -5 66 44 38 74 -11 12 -30 16 -46 11z M130 252 c-43 -67 -25 -137 45 -181 2 -1 2 -1 -1 3 -43 51 -59 121 -41 177 4 11 3 11 -3 1z M409 186 c-47 -49 -124 -71 -184 -52 -9 3 -8 2 2 -4 70 -41 140 -20 183 55 4 6 3 6 -1 1z M224 116 c-18 -3 -35 -18 -39 -36 -12 -42 34 -76 71 -51 41 27 17 94 -32 87z"/></g></svg>
